# xmcd CD database file
#
# Track frame offsets:
#	150
#	19804
#	37762
#	53465
#	80741
#	98123
#	118223
#	133905
#	151059
#	168290
#	187819
#	210135
#	229221
#
# Disc length: 3411 seconds
#
# Revision: 0
# Processed by: cddbd v1.5.1PL0 Copyright (c) Steve Scherf et al.
# Submitted via: CDex 1.51
#
DISCID=980d510d
DTITLE=Various Artist - The Best Of Texas Music Volume 1
DYEAR=2002
DGENRE=Country
TTITLE0=No Star Hotel
TTITLE1=Insanity And Texas
TTITLE2=The Highway
TTITLE3=The Band Place One
TTITLE4=Change The Thinks I Can
TTITLE5=Four Winds
TTITLE6=Son Of Texas
TTITLE7=Livin' On Lonestar Time
TTITLE8=Little Bit Cracy
TTITLE9=Texas Country Made
TTITLE10=Leavin' Town
TTITLE11=Willi e Nelson For President
TTITLE12=Land Of Opportunity
EXTD=YEAR: 2002
EXTT0=
EXTT1=
EXTT2=
EXTT3=
EXTT4=
EXTT5=
EXTT6=
EXTT7=
EXTT8=
EXTT9=
EXTT10=
EXTT11=
EXTT12=
PLAYORDER=
